<mxfile host="app.diagrams.net" modified="2024-03-11T19:19:38.844Z" agent="Mozilla/5.0 (X11; Linux x86_64; rv:123.0) Gecko/20100101 Firefox/123.0" version="24.0.4" etag="2xoGNHnogMsFluJhc3zo" type="github">
  <diagram name="Page-1" id="jxV0WXQxOxZ3HEyjg4v9">
    <mxGraphModel>
      <root>
        <mxCell id="0" />
        <mxCell id="1" parent="0" />
      </root>
    </mxGraphModel>
  </diagram>
</mxfile>
